<svg width="117" height="47" viewBox="0 0 117 47" fill="none" xmlns="http://www.w3.org/2000/svg">
<path d="M4.66229 26H0.707742L6.73331 8.54545H11.489L17.506 26H13.5515L9.17933 12.5341H9.04297L4.66229 26ZM4.41513 19.1392H13.756V22.0199H4.41513V19.1392ZM19.5387 30.9091V12.9091H23.1183V15.108H23.2802C23.4393 14.7557 23.6694 14.3977 23.9705 14.0341C24.2773 13.6648 24.6751 13.358 25.1637 13.1136C25.658 12.8636 26.2717 12.7386 27.0046 12.7386C27.9592 12.7386 28.8398 12.9886 29.6467 13.4886C30.4535 13.983 31.0984 14.7301 31.5813 15.7301C32.0643 16.7244 32.3058 17.9716 32.3058 19.4716C32.3058 20.9318 32.07 22.1648 31.5984 23.1705C31.1325 24.1705 30.4961 24.929 29.6893 25.446C28.8881 25.9574 27.9904 26.2131 26.9961 26.2131C26.2915 26.2131 25.6921 26.0966 25.1978 25.8636C24.7092 25.6307 24.3086 25.3381 23.9961 24.9858C23.6836 24.6278 23.445 24.267 23.2802 23.9034H23.1694V30.9091H19.5387ZM23.0927 19.4545C23.0927 20.233 23.2006 20.9119 23.4165 21.4915C23.6325 22.071 23.945 22.5227 24.354 22.8466C24.7631 23.1648 25.2603 23.3239 25.8455 23.3239C26.4364 23.3239 26.9364 23.1619 27.3455 22.8381C27.7546 22.5085 28.0643 22.054 28.2745 21.4744C28.4904 20.8892 28.5984 20.2159 28.5984 19.4545C28.5984 18.6989 28.4933 18.0341 28.283 17.4602C28.0728 16.8864 27.7631 16.4375 27.354 16.1136C26.945 15.7898 26.4421 15.6278 25.8455 15.6278C25.2546 15.6278 24.7546 15.7841 24.3455 16.0966C23.9421 16.4091 23.6325 16.8523 23.4165 17.4261C23.2006 18 23.0927 18.6761 23.0927 19.4545ZM34.7262 30.9091V12.9091H38.3058V15.108H38.4677C38.6268 14.7557 38.8569 14.3977 39.158 14.0341C39.4648 13.6648 39.8626 13.358 40.3512 13.1136C40.8455 12.8636 41.4592 12.7386 42.1921 12.7386C43.1467 12.7386 44.0273 12.9886 44.8342 13.4886C45.641 13.983 46.2859 14.7301 46.7688 15.7301C47.2518 16.7244 47.4933 17.9716 47.4933 19.4716C47.4933 20.9318 47.2575 22.1648 46.7859 23.1705C46.32 24.1705 45.6836 24.929 44.8768 25.446C44.0756 25.9574 43.1779 26.2131 42.1836 26.2131C41.479 26.2131 40.8796 26.0966 40.3853 25.8636C39.8967 25.6307 39.4961 25.3381 39.1836 24.9858C38.8711 24.6278 38.6325 24.267 38.4677 23.9034H38.3569V30.9091H34.7262ZM38.2802 19.4545C38.2802 20.233 38.3881 20.9119 38.604 21.4915C38.82 22.071 39.1325 22.5227 39.5415 22.8466C39.9506 23.1648 40.4478 23.3239 41.033 23.3239C41.6239 23.3239 42.1239 23.1619 42.533 22.8381C42.9421 22.5085 43.2518 22.054 43.462 21.4744C43.6779 20.8892 43.7859 20.2159 43.7859 19.4545C43.7859 18.6989 43.6808 18.0341 43.4705 17.4602C43.2603 16.8864 42.9506 16.4375 42.5415 16.1136C42.1325 15.7898 41.6296 15.6278 41.033 15.6278C40.4421 15.6278 39.9421 15.7841 39.533 16.0966C39.1296 16.4091 38.82 16.8523 38.604 17.4261C38.3881 18 38.2802 18.6761 38.2802 19.4545ZM53.5444 8.54545V26H49.9137V8.54545H53.5444ZM56.4528 26V12.9091H60.0835V26H56.4528ZM58.2766 11.2216C57.7369 11.2216 57.2738 11.0426 56.8874 10.6847C56.5067 10.321 56.3164 9.88636 56.3164 9.38068C56.3164 8.88068 56.5067 8.4517 56.8874 8.09375C57.2738 7.73011 57.7369 7.54829 58.2766 7.54829C58.8164 7.54829 59.2766 7.73011 59.6573 8.09375C60.0437 8.4517 60.2369 8.88068 60.2369 9.38068C60.2369 9.88636 60.0437 10.321 59.6573 10.6847C59.2766 11.0426 58.8164 11.2216 58.2766 11.2216ZM70.0316 12.9091V15.6364H61.9521V12.9091H70.0316ZM63.8015 26V11.9631C63.8015 11.0142 63.9862 10.2273 64.3555 9.60227C64.7305 8.97727 65.2418 8.50852 65.8896 8.19602C66.5373 7.88352 67.2731 7.72727 68.0969 7.72727C68.6538 7.72727 69.1623 7.76989 69.6225 7.85511C70.0884 7.94034 70.435 8.01705 70.6623 8.08523L70.0146 10.8125C69.8725 10.767 69.6964 10.7244 69.4862 10.6847C69.2816 10.6449 69.0714 10.625 68.8555 10.625C68.3214 10.625 67.9492 10.75 67.739 11C67.5288 11.2443 67.4237 11.5881 67.4237 12.0312V26H63.8015ZM74.4911 30.9091C74.0309 30.9091 73.5991 30.8722 73.1957 30.7983C72.7979 30.7301 72.4684 30.642 72.207 30.5341L73.0252 27.8239C73.4513 27.9545 73.8349 28.0256 74.1758 28.0369C74.5224 28.0483 74.8207 27.9688 75.0707 27.7983C75.3263 27.6278 75.5337 27.3381 75.6928 26.929L75.9059 26.375L71.2099 12.9091H75.0281L77.7383 22.5227H77.8746L80.6104 12.9091H84.4542L79.3661 27.4148C79.1218 28.1193 78.7894 28.733 78.369 29.2557C77.9542 29.7841 77.4286 30.1903 76.7923 30.4744C76.1559 30.7642 75.3888 30.9091 74.4911 30.9091Z" fill="white"/>
<g filter="url(#filter0_d_67_71)">
<path d="M89.6857 26H85.7312L91.7567 8.54545H96.5124L102.529 26H98.5749L94.2028 12.5341H94.0664L89.6857 26ZM89.4386 19.1392H98.7795V22.0199H89.4386V19.1392ZM108.321 8.54545V26H104.63V8.54545H108.321Z" fill="white"/>
</g>
<defs>
<filter id="filter0_d_67_71" x="77.3312" y="0.145411" width="39.3895" height="34.2546" filterUnits="userSpaceOnUse" color-interpolation-filters="sRGB">
<feFlood flood-opacity="0" result="BackgroundImageFix"/>
<feColorMatrix in="SourceAlpha" type="matrix" values="0 0 0 0 0 0 0 0 0 0 0 0 0 0 0 0 0 0 127 0" result="hardAlpha"/>
<feOffset/>
<feGaussianBlur stdDeviation="4.2"/>
<feComposite in2="hardAlpha" operator="out"/>
<feColorMatrix type="matrix" values="0 0 0 0 1 0 0 0 0 1 0 0 0 0 1 0 0 0 0.54 0"/>
<feBlend mode="normal" in2="BackgroundImageFix" result="effect1_dropShadow_67_71"/>
<feBlend mode="normal" in="SourceGraphic" in2="effect1_dropShadow_67_71" result="shape"/>
</filter>
</defs>
</svg>
