<svg width="30" height="39" viewBox="0 0 30 39" fill="none" xmlns="http://www.w3.org/2000/svg">
<path d="M2.14284 0.0534668H20.3496L30 10.7973V36.5658C30 37.9107 29.0401 39 27.8572 39H2.14284C0.959949 39 0 37.9107 0 36.5658V2.4876C0 1.14278 0.96006 0.0534668 2.14284 0.0534668Z" fill="#EDEDED"/>
<path d="M29.9999 10.7973L22.6671 10.7972C21.3331 10.8047 20.2445 9.72028 20.2371 8.37661L20.3332 0.0534092L29.9999 10.7973Z" fill="#B6B6B8"/>
<path d="M8.56818 34H6.50568V28.1818H8.58523C9.17045 28.1818 9.67424 28.2983 10.0966 28.5312C10.5189 28.7623 10.8438 29.0947 11.071 29.5284C11.3002 29.9621 11.4148 30.4811 11.4148 31.0852C11.4148 31.6913 11.3002 32.2121 11.071 32.6477C10.8438 33.0833 10.517 33.4176 10.0909 33.6506C9.66667 33.8835 9.15909 34 8.56818 34ZM7.7358 32.946H8.51705C8.88068 32.946 9.18655 32.8816 9.43466 32.7528C9.68466 32.6222 9.87216 32.4205 9.99716 32.1477C10.1241 31.8731 10.1875 31.5189 10.1875 31.0852C10.1875 30.6553 10.1241 30.304 9.99716 30.0312C9.87216 29.7585 9.68561 29.5578 9.4375 29.429C9.18939 29.3002 8.88352 29.2358 8.51989 29.2358H7.7358V32.946ZM17.6726 31.0909C17.6726 31.7254 17.5523 32.2652 17.3118 32.7102C17.0732 33.1553 16.7474 33.4953 16.3345 33.7301C15.9235 33.9631 15.4614 34.0795 14.9482 34.0795C14.4311 34.0795 13.9671 33.9621 13.5561 33.7273C13.1451 33.4924 12.8203 33.1525 12.5817 32.7074C12.343 32.2623 12.2237 31.7235 12.2237 31.0909C12.2237 30.4564 12.343 29.9167 12.5817 29.4716C12.8203 29.0265 13.1451 28.6875 13.5561 28.4545C13.9671 28.2197 14.4311 28.1023 14.9482 28.1023C15.4614 28.1023 15.9235 28.2197 16.3345 28.4545C16.7474 28.6875 17.0732 29.0265 17.3118 29.4716C17.5523 29.9167 17.6726 30.4564 17.6726 31.0909ZM16.4254 31.0909C16.4254 30.6799 16.3639 30.3333 16.2408 30.0511C16.1196 29.7689 15.9482 29.5549 15.7266 29.4091C15.505 29.2633 15.2455 29.1903 14.9482 29.1903C14.6508 29.1903 14.3913 29.2633 14.1697 29.4091C13.9482 29.5549 13.7758 29.7689 13.6527 30.0511C13.5315 30.3333 13.4709 30.6799 13.4709 31.0909C13.4709 31.5019 13.5315 31.8485 13.6527 32.1307C13.7758 32.4129 13.9482 32.6269 14.1697 32.7727C14.3913 32.9186 14.6508 32.9915 14.9482 32.9915C15.2455 32.9915 15.505 32.9186 15.7266 32.7727C15.9482 32.6269 16.1196 32.4129 16.2408 32.1307C16.3639 31.8485 16.4254 31.5019 16.4254 31.0909ZM23.7173 30.2188H22.473C22.4503 30.0578 22.4039 29.9148 22.3338 29.7898C22.2637 29.6629 22.1738 29.5549 22.0639 29.4659C21.9541 29.3769 21.8272 29.3087 21.6832 29.2614C21.5412 29.214 21.3868 29.1903 21.2202 29.1903C20.919 29.1903 20.6567 29.2652 20.4332 29.4148C20.2098 29.5625 20.0365 29.7784 19.9134 30.0625C19.7902 30.3447 19.7287 30.6875 19.7287 31.0909C19.7287 31.5057 19.7902 31.8542 19.9134 32.1364C20.0384 32.4186 20.2126 32.6316 20.4361 32.7756C20.6596 32.9195 20.9181 32.9915 21.2116 32.9915C21.3764 32.9915 21.5289 32.9697 21.669 32.9261C21.8111 32.8826 21.937 32.8191 22.0469 32.7358C22.1567 32.6506 22.2476 32.5473 22.3196 32.4261C22.3935 32.3049 22.4446 32.1667 22.473 32.0114L23.7173 32.017C23.6851 32.2841 23.6046 32.5417 23.4759 32.7898C23.349 33.036 23.1776 33.2566 22.9616 33.4517C22.7476 33.6449 22.492 33.7983 22.1946 33.9119C21.8991 34.0237 21.5649 34.0795 21.1918 34.0795C20.6728 34.0795 20.2088 33.9621 19.7997 33.7273C19.3925 33.4924 19.0705 33.1525 18.8338 32.7074C18.599 32.2623 18.4815 31.7235 18.4815 31.0909C18.4815 30.4564 18.6009 29.9167 18.8395 29.4716C19.0781 29.0265 19.402 28.6875 19.8111 28.4545C20.2202 28.2197 20.6804 28.1023 21.1918 28.1023C21.5289 28.1023 21.8414 28.1496 22.1293 28.2443C22.419 28.339 22.6757 28.4773 22.8991 28.6591C23.1226 28.839 23.3045 29.0597 23.4446 29.321C23.5866 29.5824 23.6776 29.8816 23.7173 30.2188Z" fill="#0EA5E9"/>
</svg>
