<svg width="31" height="39" viewBox="0 0 31 39" fill="none" xmlns="http://www.w3.org/2000/svg">
<path d="M2.64284 0.0534668H20.8496L30.5 10.7973V36.5658C30.5 37.9107 29.5401 39 28.3572 39H2.64284C1.45995 39 0.5 37.9107 0.5 36.5658V2.4876C0.5 1.14278 1.46006 0.0534668 2.64284 0.0534668Z" fill="#EDEDED"/>
<path d="M30.4999 10.7974L23.1671 10.7974C21.8331 10.8048 20.7445 9.7204 20.7371 8.37673L20.8332 0.0535313L30.4999 10.7974Z" fill="#B6B6B8"/>
<path d="M8.00568 34V28.1818H10.3011C10.7424 28.1818 11.1184 28.2661 11.429 28.4347C11.7396 28.6013 11.9763 28.8333 12.1392 29.1307C12.304 29.4261 12.3864 29.767 12.3864 30.1534C12.3864 30.5398 12.303 30.8807 12.1364 31.1761C11.9697 31.4716 11.7282 31.7017 11.4119 31.8665C11.0975 32.0312 10.7169 32.1136 10.2699 32.1136H8.80682V31.1278H10.071C10.3078 31.1278 10.5028 31.0871 10.6562 31.0057C10.8116 30.9223 10.9271 30.8078 11.0028 30.6619C11.0805 30.5142 11.1193 30.3447 11.1193 30.1534C11.1193 29.9602 11.0805 29.7917 11.0028 29.6477C10.9271 29.5019 10.8116 29.3892 10.6562 29.3097C10.5009 29.2282 10.304 29.1875 10.0653 29.1875H9.2358V34H8.00568ZM15.2479 34H13.1854V28.1818H15.2649C15.8501 28.1818 16.3539 28.2983 16.7763 28.5312C17.1986 28.7623 17.5234 29.0947 17.7507 29.5284C17.9799 29.9621 18.0945 30.4811 18.0945 31.0852C18.0945 31.6913 17.9799 32.2121 17.7507 32.6477C17.5234 33.0833 17.1967 33.4176 16.7706 33.6506C16.3464 33.8835 15.8388 34 15.2479 34ZM14.4155 32.946H15.1967C15.5604 32.946 15.8662 32.8816 16.1143 32.7528C16.3643 32.6222 16.5518 32.4205 16.6768 32.1477C16.8037 31.8731 16.8672 31.5189 16.8672 31.0852C16.8672 30.6553 16.8037 30.304 16.6768 30.0312C16.5518 29.7585 16.3653 29.5578 16.1172 29.429C15.8691 29.3002 15.5632 29.2358 15.1996 29.2358H14.4155V32.946ZM19.0057 34V28.1818H22.858V29.196H20.2358V30.5824H22.6023V31.5966H20.2358V34H19.0057Z" fill="#EF4444"/>
</svg>
