<svg width="144" height="40" viewBox="0 0 144 40" fill="none" xmlns="http://www.w3.org/2000/svg">
<path d="M5.70286 31H0.759677L8.29164 9.18182H14.2362L21.7575 31H16.8144L11.3492 14.1676H11.1787L5.70286 31ZM5.39391 22.424H17.07V26.0249H5.39391V22.424ZM24.2984 37.1364V14.6364H28.7728V17.3849H28.9752C29.1741 16.9446 29.4617 16.4972 29.8382 16.0426C30.2217 15.581 30.7188 15.1974 31.3296 14.892C31.9475 14.5795 32.7146 14.4233 33.6308 14.4233C34.824 14.4233 35.9248 14.7358 36.9333 15.3608C37.9419 15.9787 38.748 16.9126 39.3517 18.1626C39.9553 19.4055 40.2572 20.9645 40.2572 22.8395C40.2572 24.6648 39.9624 26.206 39.373 27.4631C38.7906 28.7131 37.9951 29.6612 36.9866 30.3075C35.9852 30.9467 34.863 31.2663 33.6201 31.2663C32.7394 31.2663 31.9901 31.1207 31.3722 30.8295C30.7615 30.5384 30.2607 30.1726 29.8701 29.7322C29.4795 29.2848 29.1812 28.8338 28.9752 28.3793H28.8367V37.1364H24.2984ZM28.7409 22.8182C28.7409 23.7912 28.8758 24.6399 29.1457 25.3643C29.4156 26.0888 29.8062 26.6534 30.3176 27.0582C30.8289 27.456 31.4504 27.6548 32.1819 27.6548C32.9205 27.6548 33.5455 27.4524 34.0569 27.0476C34.5683 26.6357 34.9553 26.0675 35.2181 25.343C35.488 24.6115 35.623 23.7699 35.623 22.8182C35.623 21.8736 35.4916 21.0426 35.2288 20.3253C34.966 19.608 34.5789 19.0469 34.0676 18.642C33.5562 18.2372 32.9276 18.0348 32.1819 18.0348C31.4433 18.0348 30.8183 18.2301 30.3069 18.6207C29.8026 19.0114 29.4156 19.5653 29.1457 20.2827C28.8758 21 28.7409 21.8452 28.7409 22.8182ZM43.2828 37.1364V14.6364H47.7572V17.3849H47.9596C48.1585 16.9446 48.4461 16.4972 48.8225 16.0426C49.2061 15.581 49.7032 15.1974 50.314 14.892C50.9319 14.5795 51.699 14.4233 52.6151 14.4233C53.8083 14.4233 54.9092 14.7358 55.9177 15.3608C56.9262 15.9787 57.7323 16.9126 58.336 18.1626C58.9397 19.4055 59.2416 20.9645 59.2416 22.8395C59.2416 24.6648 58.9468 26.206 58.3573 27.4631C57.7749 28.7131 56.9795 29.6612 55.971 30.3075C54.9695 30.9467 53.8474 31.2663 52.6045 31.2663C51.7238 31.2663 50.9745 31.1207 50.3566 30.8295C49.7458 30.5384 49.2451 30.1726 48.8545 29.7322C48.4639 29.2848 48.1656 28.8338 47.9596 28.3793H47.8211V37.1364H43.2828ZM47.7252 22.8182C47.7252 23.7912 47.8602 24.6399 48.1301 25.3643C48.3999 26.0888 48.7906 26.6534 49.3019 27.0582C49.8133 27.456 50.4347 27.6548 51.1663 27.6548C51.9049 27.6548 52.5299 27.4524 53.0413 27.0476C53.5526 26.6357 53.9397 26.0675 54.2025 25.343C54.4724 24.6115 54.6073 23.7699 54.6073 22.8182C54.6073 21.8736 54.4759 21.0426 54.2132 20.3253C53.9504 19.608 53.5633 19.0469 53.0519 18.642C52.5406 18.2372 51.912 18.0348 51.1663 18.0348C50.4276 18.0348 49.8026 18.2301 49.2913 18.6207C48.787 19.0114 48.3999 19.5653 48.1301 20.2827C47.8602 21 47.7252 21.8452 47.7252 22.8182ZM66.8055 9.18182V31H62.2671V9.18182H66.8055ZM70.441 31V14.6364H74.9793V31H70.441ZM72.7208 12.527C72.0461 12.527 71.4672 12.3033 70.9843 11.8558C70.5084 11.4013 70.2705 10.858 70.2705 10.2259C70.2705 9.60085 70.5084 9.06463 70.9843 8.61719C71.4672 8.16264 72.0461 7.93537 72.7208 7.93537C73.3955 7.93537 73.9708 8.16264 74.4466 8.61719C74.9296 9.06463 75.1711 9.60085 75.1711 10.2259C75.1711 10.858 74.9296 11.4013 74.4466 11.8558C73.9708 12.3033 73.3955 12.527 72.7208 12.527ZM87.4145 14.6364V18.0455H77.3151V14.6364H87.4145ZM79.6269 31V13.4538C79.6269 12.2678 79.8577 11.2841 80.3193 10.5028C80.7881 9.72159 81.4273 9.13565 82.2369 8.74503C83.0466 8.3544 83.9664 8.15909 84.9962 8.15909C85.6922 8.15909 86.3279 8.21236 86.9031 8.31889C87.4855 8.42543 87.9188 8.52131 88.2029 8.60653L87.3932 12.0156C87.2156 11.9588 86.9955 11.9055 86.7327 11.8558C86.477 11.8061 86.2142 11.7812 85.9443 11.7812C85.2767 11.7812 84.8115 11.9375 84.5487 12.25C84.286 12.5554 84.1546 12.9851 84.1546 13.5391V31H79.6269ZM92.9889 37.1364C92.4136 37.1364 91.8738 37.0902 91.3696 36.9979C90.8724 36.9126 90.4605 36.8026 90.1338 36.6676L91.1565 33.2798C91.6892 33.4432 92.1686 33.532 92.5947 33.5462C93.028 33.5604 93.4008 33.4609 93.7133 33.2479C94.0329 33.0348 94.2922 32.6726 94.491 32.1612L94.7574 31.4688L88.8873 14.6364H93.6601L97.0479 26.6534H97.2183L100.638 14.6364H105.443L99.0827 32.7685C98.7773 33.6491 98.3618 34.4162 97.8362 35.0696C97.3177 35.7301 96.6608 36.2379 95.8653 36.593C95.0699 36.9553 94.1111 37.1364 92.9889 37.1364Z" fill="white"/>
<g filter="url(#filter0_d_67_27)">
<path d="M111.732 31H106.789L114.321 9.18182H120.266L127.787 31H122.844L117.378 14.1676H117.208L111.732 31ZM111.423 22.424H123.099V26.0249H111.423V22.424ZM135.026 9.18182V31H130.413V9.18182H135.026Z" fill="white"/>
</g>
<defs>
<filter id="filter0_d_67_27" x="98.3889" y="0.781641" width="45.0369" height="38.6184" filterUnits="userSpaceOnUse" color-interpolation-filters="sRGB">
<feFlood flood-opacity="0" result="BackgroundImageFix"/>
<feColorMatrix in="SourceAlpha" type="matrix" values="0 0 0 0 0 0 0 0 0 0 0 0 0 0 0 0 0 0 127 0" result="hardAlpha"/>
<feOffset/>
<feGaussianBlur stdDeviation="4.2"/>
<feComposite in2="hardAlpha" operator="out"/>
<feColorMatrix type="matrix" values="0 0 0 0 1 0 0 0 0 1 0 0 0 0 1 0 0 0 0.54 0"/>
<feBlend mode="normal" in2="BackgroundImageFix" result="effect1_dropShadow_67_27"/>
<feBlend mode="normal" in="SourceGraphic" in2="effect1_dropShadow_67_27" result="shape"/>
</filter>
</defs>
</svg>
